<?xml version="1.0" encoding="UTF-8"?>
<!DOCTYPE svg PUBLIC "-//W3C//DTD SVG 1.1//EN" "http://www.w3.org/Graphics/SVG/1.1/DTD/svg11.dtd">
<!-- Creator: CorelDRAW X5 -->
<svg xmlns="http://www.w3.org/2000/svg" xml:space="preserve" width="96.576mm" height="94.132mm" style="shape-rendering:geometricPrecision; text-rendering:geometricPrecision; image-rendering:optimizeQuality; fill-rule:evenodd; clip-rule:evenodd"
viewBox="0 0 2665.44 2597.99"
 xmlns:xlink="http://www.w3.org/1999/xlink">
 <defs>
  <style type="text/css">
   <![CDATA[
    .str0 {stroke:#4B4B4D;stroke-width:2.10308}
    .fil0 {fill:#373435}
    .fil8 {fill:url(#id0)}
    .fil6 {fill:url(#id1)}
    .fil10 {fill:url(#id2)}
    .fil1 {fill:url(#id3)}
    .fil7 {fill:url(#id4)}
    .fil11 {fill:url(#id5)}
    .fil4 {fill:url(#id6)}
    .fil3 {fill:url(#id7)}
    .fil5 {fill:url(#id8)}
    .fil2 {fill:url(#id9)}
    .fil12 {fill:url(#id10)}
    .fil15 {fill:url(#id11)}
    .fil14 {fill:url(#id12)}
    .fil13 {fill:url(#id13)}
    .fil9 {fill:url(#id14)}
   ]]>
  </style>
  <linearGradient id="id0" gradientUnits="userSpaceOnUse" x1="977.581" y1="1019.66" x2="238.799" y2="1060.71">
   <stop offset="0" style="stop-color:#373435"/>
   <stop offset="0.831373" style="stop-color:#9A9999"/>
   <stop offset="1" style="stop-color:#FEFEFE"/>
  </linearGradient>
  <linearGradient id="id1" gradientUnits="userSpaceOnUse" x1="1237.89" y1="1177.75" x2="1103.09" y2="1774.73">
   <stop offset="0" style="stop-color:#373435"/>
   <stop offset="0.8" style="stop-color:#9A9999"/>
   <stop offset="1" style="stop-color:#FEFEFE"/>
  </linearGradient>
  <linearGradient id="id2" gradientUnits="userSpaceOnUse" x1="1324.44" y1="1551.38" x2="1288.65" y2="2231.37">
   <stop offset="0" style="stop-color:#373435"/>
   <stop offset="0.909804" style="stop-color:#9A9999"/>
   <stop offset="1" style="stop-color:#FEFEFE"/>
  </linearGradient>
  <linearGradient id="id3" gradientUnits="userSpaceOnUse" x1="1525.11" y1="992.865" x2="1896.86" y2="1561.41">
   <stop offset="0" style="stop-color:#373435"/>
   <stop offset="0.941176" style="stop-color:#9A9999"/>
   <stop offset="1" style="stop-color:#FEFEFE"/>
  </linearGradient>
  <linearGradient id="id4" gradientUnits="userSpaceOnUse" x1="1548.28" y1="1337.88" x2="2260.21" y2="1556.93">
   <stop offset="0" style="stop-color:#373435"/>
   <stop offset="0.768627" style="stop-color:#9A9999"/>
   <stop offset="1" style="stop-color:#FEFEFE"/>
  </linearGradient>
  <linearGradient id="id5" gradientUnits="userSpaceOnUse" x1="1953.13" y1="1357.4" x2="2772.79" y2="1179.21">
   <stop offset="0" style="stop-color:#373435"/>
   <stop offset="0.811765" style="stop-color:#9A9999"/>
   <stop offset="1" style="stop-color:#FEFEFE"/>
  </linearGradient>
  <linearGradient id="id6" gradientUnits="userSpaceOnUse" xlink:href="#id1" x1="1757.73" y1="1374" x2="2110.35" y2="624.68">
  </linearGradient>
  <linearGradient id="id7" gradientUnits="userSpaceOnUse" x1="1467.1" y1="905.43" x2="1477.96" y2="699.246">
   <stop offset="0" style="stop-color:#373435"/>
   <stop offset="0.74902" style="stop-color:#9A9999"/>
   <stop offset="1" style="stop-color:#FEFEFE"/>
  </linearGradient>
  <linearGradient id="id8" gradientUnits="userSpaceOnUse" xlink:href="#id5" x1="1403.5" y1="989.973" x2="976.482" y2="443.399">
  </linearGradient>
  <linearGradient id="id9" gradientUnits="userSpaceOnUse" x1="1348.64" y1="1230.07" x2="901.208" y2="1147.89">
   <stop offset="0" style="stop-color:#373435"/>
   <stop offset="0.780392" style="stop-color:#9A9999"/>
   <stop offset="1" style="stop-color:#FEFEFE"/>
  </linearGradient>
  <linearGradient id="id10" gradientUnits="userSpaceOnUse" xlink:href="#id1" x1="906.476" y1="1083.54" x2="-69.0538" y2="2159.98">
  </linearGradient>
  <linearGradient id="id11" gradientUnits="userSpaceOnUse" xlink:href="#id0" x1="1357.42" y1="1598.48" x2="2515.27" y2="2756.34">
  </linearGradient>
  <linearGradient id="id12" gradientUnits="userSpaceOnUse" xlink:href="#id9" x1="1705.61" y1="1031.92" x2="2450.23" y2="-98.8033">
  </linearGradient>
  <linearGradient id="id13" gradientUnits="userSpaceOnUse" x1="1079.47" y1="1021.6" x2="474.94" y2="-60.1916">
   <stop offset="0" style="stop-color:#373435"/>
   <stop offset="0.721569" style="stop-color:#9A9999"/>
   <stop offset="1" style="stop-color:#FEFEFE"/>
  </linearGradient>
  <linearGradient id="id14" gradientUnits="userSpaceOnUse" x1="1506.36" y1="687.389" x2="1561.58" y2="231.805">
   <stop offset="0" style="stop-color:#4B4B4D"/>
   <stop offset="0.878431" style="stop-color:#A4A4A5"/>
   <stop offset="1" style="stop-color:#FEFEFE"/>
  </linearGradient>
 </defs>
 <g id="Camada_x0020_1">
  <metadata id="CorelCorpID_0Corel-Layer"/>
  <g id="_249573952">
   <path id="_193880376" class="fil0" d="M1632.06 1288.31c190.306,-172.072 150.171,-288.461 -120.405,-349.169 188.176,93.6063 228.311,209.996 120.405,349.169z"/>
   <path id="_193881592" class="fil0" d="M1614 1378.61c-160.919,86.941 -265.269,60.854 -313.05,-78.261 94.0948,77.709 198.446,103.796 313.05,78.261z"/>
   <path id="_191298384" class="fil0" d="M1367.17 890.982c-217.249,31.0687 -269.423,129.397 -156.522,294.986 -9.80884,-148.096 42.3652,-246.424 156.522,-294.986z"/>
   <path id="_191299344" class="fil1" d="M1488.13 1499.08l-0.551989 -0.0579588c37.8002,-11.7822 72.1753,-25.8082 103.112,-42.0781 145.656,-76.594 215.278,-202.93 208.87,-379.004 -0.712066,-19.5653 -2.36527,-39.7432 -4.9541,-60.5339 3.15186,7.58157 6.26508,15.1714 9.29274,22.8027 130.487,328.668 44.1232,496.669 -315.768,458.871z"/>
   <path id="_191298216" class="fil2" d="M1027.08 1354.97c-59.2947,-44.6366 -84.2142,-99.8741 -74.7559,-165.71 13.9432,-97.0562 99.6616,-198.335 168.031,-268.178 -5.27426,13.2505 -9.9358,26.4016 -13.9764,39.4534 -36.3816,117.474 -22.8275,226.97 40.665,328.48 36.6604,58.613 89.9742,114.568 159.936,167.86 -62.6259,-11.5117 -117.005,-25.5654 -163.132,-42.1637 -47.7664,-17.1862 -86.6899,-37.1019 -116.765,-59.7418z"/>
   <path id="_193881160" class="fil3" d="M1192.59 866.902c21.4834,-23.879 44.4351,-46.6155 69.178,-67.1163 70.3869,-58.3287 140.639,-86.091 210.752,-83.2869 114.287,4.56495 210.032,89.919 279.944,174.484 -183.271,-86.3559 -370.078,-97.5779 -559.874,-24.0805z"/>
   <path id="_193881400" class="fil4" d="M1927.55 1248.17c20.1724,-258.066 -86.251,-442.452 -313.538,-555.858 493.119,14.0481 640.062,198.973 307.027,614.055 2.85654,-19.7888 5.02586,-39.1885 6.51347,-58.1962z"/>
   <path id="_193881928" class="fil5" d="M981.765 956.208c-47.2282,-380.067 115.203,-480.037 463.676,-330.112 -212.008,30.1634 -370.467,136.071 -463.552,331.108l-0.124198 -0.99634z"/>
   <path id="_195191520" class="fil6" d="M940.145 1642.74c-86.7451,-97.2936 -75.3023,-287.716 -60.5974,-408.615 111.469,262.175 331.527,353.273 608.032,337.13 -17.9424,9.9358 -36.0118,19.626 -54.2522,29.0015 -98.3617,50.5512 -183.857,82.9446 -256.482,97.1859 -106.644,20.9121 -185.543,2.67715 -236.701,-54.6994z"/>
   <path id="_194006608" class="fil7" d="M1655.78 1636.43c-15.5909,-7.28626 -31.5241,-14.9672 -47.7967,-23.0345 259.38,-52.0995 414.386,-227.248 499.669,-469.572 2.97246,8.50063 5.86764,16.9129 8.68279,25.2314 35.7606,105.7 58.6599,196.687 68.7006,272.967 15.4667,117.532 0.405712,200.14 -45.1858,247.824 -46.897,49.047 -126.099,61.1411 -237.604,36.2822 -69.5782,-15.5109 -151.731,-45.4094 -246.466,-89.6955z"/>
   <path id="_193880832" class="fil8" d="M581.915 1397.7c-9.68465,-19.4383 -18.8394,-41.8573 -27.4615,-67.2543l0 0.00275995c-289.855,-313.472 -173.291,-518.991 186.625,-650.174 87.0763,-96.9238 151.394,-125.003 192.951,-84.2446 6.46931,6.34511 12.3894,14.36 17.7547,24.0419 -56.1014,108.64 -99.3691,238.341 -129.8,389.092 -27.1468,134.487 -44.0818,285.729 -50.8023,453.727 -86.1489,62.2092 -146.363,20.9121 -189.266,-65.1899z"/>
   <path id="_191298360" class="fil9" d="M1160.25 486.725c-55.5825,-22.5764 -125.459,-60.5836 -25.8441,-96.104 23.3271,-8.31847 54.7656,-16.1153 94.3101,-23.3933l-0.00275995 0c114.516,-74.2039 220.958,-113.337 319.32,-117.389 118.879,-4.8989 225.968,41.4268 321.255,138.988 43.0413,44.0708 79.8287,94.4674 111.946,146.964 51.9173,56.6948 33.9639,102.052 -24.0805,138.464 -255.745,-93.932 -524.724,-152.225 -794.66,-186.625l-2.24384 -0.905262z"/>
   <path id="_191299464" class="fil10" d="M934.86 2007.64c-40.3173,-47.8464 -78.3604,-104.922 -114.124,-171.235 -19.1789,-35.5564 -37.7036,-73.7761 -55.5743,-114.645l-0.00275995 0c-50.6836,-62.8467 -92.8252,-137.939 24.0833,-126.422 289.491,239.077 691.237,234.913 1041.48,168.564 77.7918,32.0457 110.033,76.2766 42.1416,138.464 -38.6337,34.5876 -76.5084,66.0952 -113.621,94.5226 -163.883,125.522 -312.958,190.972 -447.213,196.345 -142.383,5.69653 -268.109,-56.1649 -377.174,-185.593z"/>
   <path id="_193881760" class="fil11" d="M2096.02 1848.21c-8.03972,-5.42053 -16.2036,-11.4455 -24.4835,-18.0804 199.009,-148.67 283.775,-343.635 254.299,-584.893 -18.3619,-150.287 -81.0541,-318.539 -188.076,-504.755 13.8135,-105.918 58.3811,-85.1802 114.35,-4.74987 16.3775,23.5368 34.4496,53.2145 54.2136,89.0331 25.1514,24.707 48.8234,49.116 71.0189,73.2296 126.107,137.001 204.462,264.381 235.067,382.136 41.9843,161.548 -5.90352,304.982 -143.666,430.303 -50.9072,46.3119 -108.783,85.5638 -168.439,119.696 -56.2863,65.9075 -124.38,71.9352 -204.283,18.0804z"/>
   <path id="_193881832" class="fil12" d="M140.89 1988.37c-114.289,-96.3304 -159.042,-213.291 -134.266,-350.886 -1.18126,-164.871 16.7197,-382.148 123.844,-514.407 42.2354,-52.1464 95.2705,-87.3688 159.103,-105.67 74.8939,81.3935 112.678,177.961 114.383,288.966 24.569,282.486 110.856,443.024 258.866,481.616 12.8669,7.28902 25.0686,14.8126 36.6079,22.5626 106.142,71.2949 156.147,162.105 150.017,272.426 -219.471,143.142 -475.878,50.4739 -680.277,-72.2443l0 -0.00275995c-9.85576,-7.32489 -19.2837,-14.7795 -28.2784,-22.3611z"/>
   <path id="_195190992" class="fil13" d="M233.991 896.574c-20.1145,-34.4082 -26.1477,-92.9467 -28.7007,-132.016 9.61289,-78.3686 8.64139,-175.756 -2.91174,-292.165 -4.08472,-41.1839 -9.23754,-82.2657 -15.1493,-123.226 30.7541,-173.278 216.476,-263.404 367.227,-313.047 56.9956,13.6148 131.429,19.5846 223.296,17.912 0,0 0,0 0,0 95.4003,-1.74153 209.599,-11.7242 342.6,-29.9509 86.1517,-2.36251 151.43,16.4465 195.826,56.4298 23.2608,20.948 39.8205,46.8887 50.9983,76.0116 -40.9438,104.326 -169.521,147.754 -270.905,168.564 -149.101,17.1972 -263.484,87.4323 -343.149,210.705 -49.3064,53.8686 -105.678,107.925 -169.116,162.163 0,0 -0.00275995,0.00275995 -0.00275995,0.00275995 -67.9636,58.1106 -144.033,116.428 -228.212,174.964 -55.9965,58.8834 -96.5953,66.7686 -121.802,23.6527z"/>
   <path id="_193877752" class="fil14" d="M1796.22 280.703c-76.9335,-29.686 -145.615,-74.5875 -206.298,-130.2 -52.2292,-51.3212 -59.4685,-88.3872 -21.7235,-111.198 28.2315,-17.062 81.6254,-26.1505 160.187,-27.2655 93.3524,14.556 212.632,15.9387 357.843,4.14544 48.4094,-3.93016 99.6975,-9.32585 153.87,-16.1843 144.384,59.5127 320.794,155.92 385.288,307.027 -9.47489,56.8218 -16.1705,109.457 -20.0869,157.91 -8.55031,105.764 -3.86116,191.59 14.0674,257.478 -8.28536,74.9049 -30.3953,159.897 -90.3026,210.705 -98.8612,-20.0124 -177.056,-143.52 -222.747,-228.764 -37.2565,-136.098 -167.692,-266.536 -391.308,-391.311 -40.9852,-6.81706 -80.5821,-17.5974 -118.791,-32.3438z"/>
   <path id="_195191616" class="fil15" d="M1260.51 2410.06c-27.8699,-11.4345 -53.5015,-27.4835 -77.1018,-49.8998 38.0569,-52.0553 111.905,-84.6006 171.459,-104.756 65.1513,-22.052 146.462,-40.2179 243.932,-54.4924 196.986,25.9932 368.756,2.58607 515.307,-70.2075 70.9278,-35.2335 135.952,-82.0366 195.067,-140.412 52.9578,-81.2279 149.28,-161.708 288.969,-241.44 16.5293,9.20442 29.8267,18.6407 40.0937,28.4578 51.0314,48.7876 27.2379,106.934 -46.1132,192.434 -67.8174,79.0503 -69.098,151.504 -59.2588,222.142 7.62021,54.7242 21.9167,108.361 17.1172,163.135 -3.87772,44.2612 -19.9434,81.5674 -45.1527,112.633 -84.7276,104.409 -272.741,138.312 -448.499,128.807l0.00275995 0c-180.798,-86.389 -374.715,-161.178 -577.935,-159.246 -84.8766,0.805904 -156.768,-2.081 -217.887,-27.1551z"/>
   <path id="_188661496" class="fil0" d="M1524.05 1004.54c-93.587,-34.538 -163.971,-18.6103 -211.152,47.7802 79.3319,-36.8563 149.716,-52.784 211.152,-47.7802z"/>
   <path id="_193877440" class="fil0 str0" d="M1312.89 1110.89c24.3731,138.687 93.7305,155.642 208.07,50.863 -106.708,76.4201 -176.065,59.4658 -208.07,-50.863z"/>
   <path id="_193881184" class="fil0" d="M1541 1078.52c79.5692,85.5831 65.6977,152.371 -41.6145,200.364 73.3814,-62.9157 87.2529,-129.704 41.6145,-200.364z"/>
  </g>
 </g>
</svg>
